<?xml version="1.0" encoding="UTF-8"?>
<svg id="Layer_1" xmlns="http://www.w3.org/2000/svg" width="3000" height="639.7334358" version="1.1" viewBox="0 0 3000 639.7334358">
  <!-- Generator: Adobe Illustrator 29.3.1, SVG Export Plug-In . SVG Version: 2.1.0 Build 151)  -->
  <defs>
    <style>
      .st0 {
        fill: #273849;
      }

      .st1 {
        fill: #ea7c24;
      }

      .st2 {
        fill: #fff;
      }
    </style>
  </defs>
  <g>
    <path class="st1" d="M304.8072533,374.5523629l40.9012508-38.720838,531.5552239-5.0564033v12.9720036l-1.7058439,4.6116787-8.2049828,4.3049384-2.5013765,6.6423837.9948839,3.8990046-.9948839,6.4860018v8.4318023l-7.1145118,13.6206038h-38.5898172l-6.4860018,11.6748032h-26.5763273l-10.3938829,8.4318023-28.5384079-6.4860018-21.722547,14.269204-30.8140675,8.4956991h-26.5926074l-22.8147289,7.2526058h-10.9124805l-13.6206038-7.2526058-25.773748,4.4763045-8.310414,12.7216438-23.748691-9.9453426-44.4473683,7.4250433-10.57621-7.4250433-29.8356083,26.3304224h-12.3234034l-22.7010063,19.5382899h-15.5664043l-48.6450135,27.2483259-45.7833799,22.7483308-31.4000415,14.7554804-27.8898077,6.6032184-6.6148672-6.6032184-19.9777402-42.6997309,50.3312213-26.5926074,16.4745972-6.4860018,8.5630285-8.5120868-2.6687785-10.9459186-17.5690532-22.6371095,2.5944007-53.5766824Z"/>
    <polyline class="st2" points="278.2631114 234.7828536 247.8207815 243.4081804 189.4729827 290.5937916 250.8650145 378.876548 278.2631114 395.1124573 364.5163792 317.9918884 306.6759525 212.9658505 261.51983 230.2165041"/>
    <polygon class="st1" points="313.8876558 171.2194773 319.7819058 80.4154522 540.2491185 83.6584531 540.2491185 99.4536507 554.5183224 97.3985939 565.346406 80.4154522 609.0007375 89.3755555 871.4415012 83.0098529 875.5578841 167.7525852 313.8876558 171.2194773"/>
    <g>
      <path class="st0" d="M850.6863128,111.3865728c1.6831786-.0322091,3.0810556-.6473323,4.1995004-1.841075,1.1155818-1.1967489,1.6551208-2.6171008,1.624508-4.2639188-.0307993-1.6466749-.6347566-3.0391122-1.8146135-4.1728743-1.1798569-1.1337621-2.591906-1.6846101-4.238724-1.6538325-1.6495379.0336407-3.0446951.6374549-4.1966374,1.817455-1.1519423,1.1784254-1.7139562,2.5931944-1.6802942,4.238581.0307563,1.646818.6345705,3.0461267,1.8172904,4.198069,1.177137,1.1505108,2.6086548,1.7098048,4.2889703,1.6775957Z"/>
      <path class="st0" d="M337.64382,141.6707608c-1.648258.0334975-3.0462698.6388864-4.1980774,1.8173118-1.150654,1.1784254-1.7112279,2.5931944-1.6790272,4.238581.030786,1.646818.6360233,3.0475582,1.8173202,4.1982122,1.1771286,1.1505108,2.6086464,1.7096617,4.2889619,1.6774525,1.6831786-.032066,3.0811988-.6471892,4.1995004-1.841075,1.1155904-1.1966057,1.6565523-2.6169576,1.6244863-4.2637757-.030769-1.646818-.6361665-3.0392554-1.8145919-4.1730175-1.1798569-1.1337621-2.5917629-1.684467-4.2385724-1.6536893Z"/>
      <path class="st0" d="M339.6526603,97.3999284c-1.6482495.0307776-3.0461266.6374549-4.1980689,1.8158803-1.1519339,1.1800001-1.7110932,2.5933376-1.6790272,4.2401556.0322091,1.6466749.6361665,3.0446952,1.8187433,4.1966375,1.177137,1.1519424,2.6086548,1.7110932,4.2889703,1.678884,1.6831786-.032066,3.0811988-.6471892,4.1980776-1.8425065,1.1142847-1.1951742,1.6566868-2.6183892,1.6259092-4.2652072-.0336407-1.6466749-.6374548-3.0363924-1.8145919-4.1714428-1.1798483-1.1337621-2.5946259-1.6846101-4.2400124-1.652401Z"/>
      <path class="st0" d="M851.3797615,147.2024318c-1.6468395.0322091-3.0448383.6388864-4.1968021,1.8160234-1.1519423,1.179857-1.7110718,2.594626-1.6803155,4.2400125.0334975,1.646818.6374548,3.0461267,1.8173332,4.198069,1.1771156,1.1490793,2.6086334,1.7096617,4.2918119,1.6775957,1.6831786-.0336407,3.0783357-.6473323,4.1966374-1.8425065,1.1156034-1.1967489,1.6579838-2.6171008,1.6244863-4.2637757-.030756-1.646818-.634735-3.0392554-1.8145919-4.1715859-1.1798569-1.1337621-2.5917629-1.6858985-4.2385594-1.6538325Z"/>
      <path class="st0" d="M835.5826555,360.2931574c1.6831786-.0336407,3.0811988-.6487639,4.1995004-1.8425065,1.1128619-1.1938858,1.655264-2.6171008,1.6244863-4.2639188-.0336407-1.6466749-.6374548-3.0391122-1.8145919-4.1714428-1.1798569-1.1351936-2.5946259-1.6860416-4.2414439-1.655264-1.646818.0336407-3.0446951.6374549-4.1966374,1.8201749-1.1519423,1.1771371-1.7110932,2.5919061-1.6804587,4.2358611.0336407,1.646818.6374548,3.0475582,1.8201748,4.1995005,1.1771581,1.1490793,2.6086758,1.7083733,4.2889703,1.6775957Z"/>
      <path class="st0" d="M931.5164649,233.5506856c25.7114901-5.0997821,8.2983652-22.2724125-26.2985555-25.7059078-17.3431237-2.4436008-.2403518-7.3028879-.3886571-11.6869111-25.4148698-3.351966-58.4452873-3.5258103-90.8439726-1.4916415l31.9688143-4.4537844c.9789129-.1363788.875642-1.5821037-.1127165-1.5779564l-320.0496652,1.3429475-219.9779072-5.1431571,1.454707,1.301536-1.454707-1.301536-115.8472922,100.6732053-10.186962,8.790378c6.9674786,19.4932638,8.4744373,28.6359384,11.2843635,43.8765924.626289,3.3886889,8.6058552,21.6992327-25.5772137,34.4905598-54.770868,20.4914612-72.6830204,58.8600027-72.6830204,58.8600027-12.4447566,30.8420505,2.0144318,42.886841,11.5081145,46.6362724,13.1016801,5.1752231,34.0739881-2.9497855,50.7600417-14.2453197,23.7710678-16.0934091,38.0806623-39.9595303,45.632491-56.2597938,8.48003-18.3105439,22.5267926-21.9033672,32.0302094-22.2668295,25.3451647-.9730026,47.2834604,17.1782133,47.2834604,17.1782133l7.4917049-6.1426428,10.6188554-9.784424c-.3983914,9.9997243-.6639304,16.8050166-.7478249,19.3884767l-.121679,3.8583699c-.162191,5.2465126-.3285333,10.6721082-.6486207,15.9479669-.278287,4.5755603,2.2437609,7.5993553,3.7507196,9.4069328.3047701.3634624.6178506.7395221.7604222.9562539,4.5432489,6.8810568,9.136564,13.5217961,13.9996019,20.5521332l-.594195,2.6529231c-10.5672711,6.0489466-21.2842339,11.3650818-31.7172386,16.5391737-13.3423179,6.6179067-27.1388564,13.4609911-40.808133,21.8906267l-5.6756756,3.499202,3.3816684,5.7456829c1.249715,2.1262334,2.4547666,4.2538982,3.6515154,6.3662458,2.7595367,4.8718844,5.6128442,9.9088229,8.8910199,14.6660428,1.9836478,2.8799275,4.1604137,8.0090556,6.2657533,12.9689784,1.9613159,4.6245182,3.8149949,8.9917926,5.802937,12.327229,2.4659325,4.1380884,5.7819001,7.0164412,10.4316129,9.0574993l4.8328039,2.1220819,2.6099502-3.3257021c1.0135146-.5438336,2.7665441-1.6021547,3.9156234-3.54816l.4586583.0797355,1.7753683-.7031615c.2487978-.0992042.4878612-.2068543.7143274-.3200874.3452821.194257.7186219.3731967,1.1211647.5298047l2.5694386.9967658,2.5402209-1.0709184c.7044499-.2977557,1.3307389-.6318719,1.8788745-.9449449,2.0353244,1.4048915,4.69852,1.719396,7.2036761.7521194,1.2315347-.4754071,2.5163296-1.3323136,3.7046248-2.4269952l2.1905084,3.2741675,5.6003837-3.5145193c4.6565841-2.9231593,5.4338982-7.4427472,5.8504698-9.8697425.0502463-.2948927.1159529-.6709524.1733568-.974291.1327017-.0070144.2669862-.0125974.3872337-.0181803.4305924-.0181803.9492313-.0419435,1.5279939-.0992042,2.4756668,1.7040788,5.3318393,1.455281,6.1426426,1.3406164,2.9454993-.4208662,6.3397626-2.4799614,7.3378168-6.8639846,3.1287252-.2363436,9.7046882-1.2037633,13.7896672-7.7699922.9002815-.1299818,1.6410919-.3886571,2.1373991-.6010943l2.8686184-1.2316779.1510251-.4794153,1.9850856.8261289,3.064316-4.867733c1.0316857-1.6398036,1.5447417-3.3228391,1.9488591-4.6999592l6.2573072.9184618.0250609-3.339731,2.7121442.8878273,2.8545895-3.0560041c.5899285-.5340993,1.0777897-1.1128619,1.4594323-1.730705,5.2662771.5578625,10.1716493-.9310592,14.6829343-4.4679101,2.0452094,1.1296107,4.5811431,1.5922772,7.5755919,1.3728255,6.114728-.4557953,8.7819319-4.8621501,10.0625676-6.9786492.2039913-.3369793.3998229-.6793983.626289-.9856.3523068-.4752639.6919957-.9505278,1.0302633-1.4216403,1.8102973-2.5261994,2.8434237-3.8878591,4.7307367-4.8160553,1.9375593-.950671,3.4669928-2.1654569,4.8146236-3.2376638,1.533585-1.2190805,2.5120273-1.9669054,3.3131153-1.9893803,1.6363138-.0613567,3.5493371-.7530371,4.9544257-2.4094433l.0654899-.0010172c.5228171.6055304,1.1281665,1.1577877,1.8076975,1.6430238.8444523.6025258,1.7670655,1.0694869,2.7386366,1.3965887,1.0890987,2.1528596,2.9525053,3.134165,3.7339819,3.4655614l.8946986.3787796.9632573.1132331c4.7139879.5605824,8.190715-1.0498751,10.4903165-2.1123476.644458-.2977557,1.2540096-.580051,1.699916-.7240617,4.2554728-1.3699625,7.2819876-4.9249938,7.529497-8.842199.0558292-.8918356-.0363606-1.7669224-.2601068-2.5960575,3.1692371-3.8932989,6.627784-7.4846907,10.2708535-11.1054286,1.9026302.9772972,4.3127335,1.5517653,7.2051151.8262721,2.9931604-.7562708,7.3212112-2.1276649,10.3408547-5.2885993,2.6365694-2.7622567,5.1528913-5.6281553,7.5853262-8.4002895,3.841621-4.3770087,7.4708048-8.5122341,11.5192928-12.2490681.8275477-.7645736,1.58525-1.5614996,2.2772457-2.3681599l1.9460052,3.0434068c1.2623252,1.9767829,5.1010703,7.9935953,15.5942385,4.5629629.3677569-.1202475.7297877-.2403518,1.0835158-.3382677,1.6844669-.4599467,3.2614269-1.0037803,4.7851343-1.530722,3.2293609-1.1128619,6.0126608-2.0830015,8.6618275-1.8593984,1.6678613.1314133,3.1355965-.1495936,4.3881745-.6388864,1.1729856.4711125,2.3850517.7242048,3.6306153.7577024,3.1258621.0601237,6.198615-1.2623124,9.0378872-3.9939346.42632-.1859542,1.6579838-.359311,2.4855442-.4752639,1.4021858-.19712,3.1020989-.4361835,4.8747474-1.020529,2.3386705,1.4174889,4.7516368,2.1751913,6.8317753,2.8293949,2.0172948.6333035,3.7605971,1.1812885,4.7544999,2.1152107,4.1071675,3.8598014,8.1990326,5.3401339,12.1525835,4.403635,6.0727995-1.4385322,8.4101667-7.8160871,9.1790349-9.9144058l.0977727-.2698411c.0894699-.2446464.19712-.5396822.3076332-.8248405.124414.0014315.2487978.002863.3717652.002863,6.6207695,0,12.454506-1.8480894,18.1107035-3.6403497l1.4189204-.4473493c3.9157736-1.2329663,5.221461-.0824554,6.3159994,1.3155648.2307607.2948927.4543637.5955114.6793983.8974185.7619969,1.0232489,1.6259178,2.1822057,2.7904575,3.3145363,1.1001214,1.0680554,4.4427153,4.319748,9.1817548,3.6165865,2.7037076-.4012544,4.6189513-1.9235304,5.9093052-3.415172,1.1951742.9798739,2.739925,1.8257578,4.7349044,2.148565l2.2687962.3677569,2.2466239-1.1924543c.3969599-.1958316,1.0637608-.5242218,1.7642025-1.063904,1.330882-1.020529,2.5204733-2.0857214,3.6696957-3.1146964,3.6976103-3.3118164,5.3345509-4.5321853,7.8508727-4.2050835l3.6180179.3690453,1.4999443-1.6579839c.3033386.1832343.5956545.3663254.78848.4878613,3.1524884,1.9726315,6.7563343,1.9978262,9.7298829,1.0233921,3.0070634,2.554114,6.7172538,3.9381054,10.6553591,3.9366739h.0194686c3.7339709-.0041514,7.3505573-1.2484267,10.4834339-3.5647656,2.5609852-.6109718,4.7111249-2.719168,6.8780133-5.0816018,4.3476625,2.0158633,8.2912076.6136917,10.1770891-.0574039.1481621-.0531093.3243819-.1159529.4822783-.1704938,3.3048019.582914,6.0085094-.5731797,7.7125881-1.4217835l4.4497297,3.809412,4.2484583-6.4348156c.2278976-.3452821.429169-.6864128.6136917-1.0135146.7787456-.6793983,1.374257-1.411906,1.8286208-2.157011.4556521.5996628.9798739,1.2651754,1.5867129,2.0255977l5.0997633,6.4083325,5.36676-6.1874493c4.4888102-5.1737915,5.9428027-8.4940539,5.0969379-12.0532365.5871895.5089046,1.2275074,1.0120831,1.9712,1.5013758,3.595524,2.36544,7.7433467,4.6272381,13.6986036,5.1640572,4.9489.437615,8.5863865-.9071528,11.7373002-4.357397.1454422-.0824554.2991872-.1580396.4502321-.237632,1.249715-.6626496,4.3434914-2.3038847,5.6981366-5.6925736,1.4356691.4991702,3.0643069.7242048,4.8886331.6793983.8010773-.0194686,1.4860586-.118816,2.0117119-.2012714,3.1020989,1.5544852,5.5037563,2.1011818,7.5838947,1.7866773,2.4968532,3.2893415,6.2936677,3.6193064,8.2033124,3.5480168l1.9515881-.0727211,1.6146089-1.0974015c4.4175206-2.9986003,3.9939345-7.7055739,3.8318867-9.3286287.507473-1.339328,1.0792419-2.6911103,1.678884-4.1100307.5535679-1.3112703,1.1225962-2.6533182,1.6635875-4.0484754.9925937,1.2371177,2.22284,2.5917629,3.9366739,3.7577342l4.3756994,2.9734056,2.8349777-2.5093075c1.2875071.6108286,3.1020989,1.1155818,5.2592742.59136.8624683-.2097174,1.6662867-.5634454,2.3919018-1.0471553.5899497.2307607,1.249715.4235861,1.9780712.5353876l3.2306492.4977387,2.4086717-2.2101203c.1720684-.1580396.3369793-.318799.4935873-.48099,1.7069418,1.9865172,3.685013,3.6878761,6.0490214,5.2535271l6.8123066,4.5112851,3.206886-7.5126053c.710176-1.6635668,1.6383939-2.7470826,3.0978044-3.618018,3.2671529-1.9445737,6.5649404-6.0056465,3.7298415-14.3123147l-.1579184-.4557953c2.6421523-3.6947474,4.5336167-9.4978341.7660051-17.5319413-.2613951-.5591508-.6066552-1.2972414-.9114473-1.9795028.4306005-.3130729.901735-.6500522,1.3504938-.9687081l.9463764-.6766785c.4626665-.3312532,1.330882-.7395221,2.1710398-1.1351936,2.9384765-1.3838482,7.3784719-3.4738642,9.13294-8.8141412,1.09597-3.3368679.9184618-6.5647974.7618537-9.4110842-.0419211-.7577024-.0853185-1.5154047-.0921897-2.2619412-.0181803-1.7264104-.1049303-5.0438097-.2530923-9.5900239l-.2167318-6.7129595-207.0611676,3.9338108-89.3929862.8946986-227.4282293,1.7852458,10.1171085-9.3203259,171.948471,1.0037803h.0712896l110.9971656-1.6943444,98.1707666-.9897514,34.8219553-.2194517,38.7417455-.3989195c1.8074603-.0186112,1.9852526-2.6538359.1966724-2.9150634l-8.8387327-1.2909235c16.6525389-.9143104,89.9591033-11.0714206,109.8445049-27.9307829,0,0-33.1556864-12.5124003-33.1697153-12.963901-.0475264-1.4594324,75.8923421-24.2310721,84.5037802-24.465841,8.5359971-3.1650858-55.4713124-10.7797583-46.9437612-13.9321036ZM134.2141971,453.4870724c-6.209781,5.6142696-15.5202294,5.4185811-20.7933683-.4306005-5.2702758-5.8517584-4.5098536-15.1398751,1.7027904-20.7512817,6.2083494-5.6115497,15.5146465-5.4214441,20.7905053.4304574,5.2731389,5.8491816,4.5098536,15.1428813-1.6999274,20.7514248ZM319.383597,201.2894554l-2.3932889-1.8615796c-2.963898.3514917,6.2111956,9.5130118,3.3505389.09064.0111804-.2516531-.9669844,2.0226004-.9572501,1.7709396ZM243.1745959,250.7288989c-4.8398183,8.6085753-4.1982121,14.7261665-.5731797,18.7075037,6.4837733,7.1268112,14.9960072,2.0885844,33.0689187-8.0522875,26.7500562-15.008605,31.7099789-9.7718266,20.6324652,15.2015736-8.8560845,19.9712476,7.3365284,24.7718425,15.0519796,22.4764037,5.8322896-1.7334249,26.7459048-12.1398433,18.5202607,11.7653583-11.3151457,32.8968511,8.7316856,23.2117744,21.2351341,14.9414668l-37.2181728,33.6266388-85.7232904-95.1091821,15.0058847-13.5574754ZM281.719213,388.4620953l-85.7260103-95.1093252,8.306668-7.5041593,85.7232904,95.1091821-8.3039481,7.5043025ZM588.6051228,340.4965155l89.4698587-.8961301,193.6700349-3.6794301c.0266262,1.0862357.043375,1.9557396.0489579,2.5735827.0097343.945088.0601237,1.9069248.1132331,2.872913.0810239,1.4678783.1704938,3.1118333-.0210433,4.0904189-.4626665.3089215-1.4146258.7577024-2.0801384,1.0694869-1.328019.6248575-2.8336894,1.333602-4.302856,2.38906l-.9143104.6529153c-8.7233828,6.2139324-9.5887353,9.732603-4.8663014,19.8119197,1.3350334,2.8490067.8122432,3.4697128.3047701,4.0709502-4.1325054,4.905382-2.3639868,9.9716665-1.6091691,12.1356919l.0574039.1677739c-.3271018.2543807-.6444693.5172074-.9533908.78848-.7200534-1.1812885-1.4091645-2.638001-2.1207935-4.516868l-2.6128062-6.8933307-6.662713,3.1523453c-3.1159847,1.4734612-4.7908604,3.8025407-5.8238436,5.853333-.9548223-.1090817-2.008992-.0685697-3.1413225.2306175-.6136705.162191-1.1994687.385794-1.7544681.669664l-4.07367-2.5359337-.9114473.8037972c.4851414-5.1669203-2.5834392-9.3160314-4.1532624-11.4381133l-12.1792098-16.4680373-.1006357,20.4815837c-.0125974,2.58618-1.1701226,5.1626257-2.510739,8.1459087-.6961266,1.5476139-1.4147485,3.1481939-2.038195,4.8873448-.5424021,1.5125417-1.174274,3.0223635-1.843938,4.6076263-.0181803-.0055829-.0363402-.0125974-.0545408-.0194686l-4.7278736-1.5294336-2.861604,3.7143592c-1.5728085-.6877011-3.0406868-.8918356-4.2638987-.901713.1258103-2.2227176-.1901256-4.9766715-2.0983388-7.6440186-3.1816913-4.4371325-8.6561015-3.6234578-12.2797023-3.0797673-.507473.0755841-1.2734782.1888172-1.528002.2014146.8025088-.046238,3.1607912.3564479,4.7894289,2.6128062.6179862.8569065,1.0107947,1.8480894,1.1616766,2.8686185-.2711295-.3243819-.5661653-.6444693-.8848211-.9604053.3648939.3647507,1.0038001,1.1042728.933779,2.4659325-.040512.4837099-.1369962.9632683-.2892899,1.4273664l-12.7956411-4.6301011c-.1929686.4948757-.3299454.9981973-.4124203,1.5028074-.5773311,3.3481769.9213443,6.8584017,2.9384765,8.8618108.078304.4374718.0294893,1.4999443-.0041514,2.2212861-.0223317.4963072-.0460753,1.0190975-.0558292,1.568514-.9492394.547985-2.0746987,1.3112703-3.0700329,2.4561982-.0334975.0377921-.0628436.0712896-.0909014.1020672-.1173845-.0027199-.2711295-.0097343-.4667985-.0264831-2.6380204-.237632-4.5979113-1.1589568-6.9521854-2.6673471,1.6286377-3.8738303,1.7292734-9.030873-4.7628027-13.8537996-.3117846-.2307607-.7828971-.5801942-.9170303-.713039-.6277205-.6570667-1.2736213-1.1337621-1.8286208-1.4860586-1.3238676-2.2129833-3.8346066-3.5703485-6.5885604-3.2740243-3.7368339.4109888-6.4320955,3.7731946-6.0225383,7.5098854.2642582,2.4115348,1.3420479,4.0695187,2.4745216,5.2088637-.2419265,1.0232489-1.1058475,2.1724714-3.1733885,4.4902418-1.1686911,1.3098388-2.4716398,2.7707027-3.6151549,4.479076-.9715711-.0727211-1.8299091.0642751-2.5722942.3117846-4.9111079-1.4790442-8.0522873.5116245-9.8584332,2.5359337-1.7866773,1.9989714-2.3220649,4.1743058-2.4506152,5.9105937-2.0117119.3424191-3.6403496,1.1769939-4.5741286,1.6551209-.1440107.0741526-.3117846.1593279-.4683926.237632-.9827369-.1578964-1.9110762-.1551765-2.7665512-.0628436l-2.4869758-2.1053332c-3.171957-2.6840958-6.3048157-2.2284437-9.141386-.5522796l-.0250338-3.2264979-11.7094035,12.8976888c-1.1016961,1.2134976-2.3388137,1.8830185-3.4837416,1.88445h-.002863c-.8289919,0-1.5740969-.3578794-2.2101202-1.0554581l-.1551765-.1719253c-4.6929446-5.2102952-9.4796536-3.7787775-11.997407-2.3904915-2.8407038-1.6511126-8.1808376-4.0387411-13.4176158-.5872086-6.6222011.2362004-11.2004811,3.9507028-14.7011146,7.0569532-1.7067986-1.8131604-4.389606-3.6277523-8.4576931-3.4725758l-1.9487251.075441-1.6131773,1.0961132c-1.1492224.7814656-1.9753513,1.7138131-2.5848916,2.6407208-5.0745872-6.0881019-12.4028128-8.0061926-20.698315-5.3948179l-1.449698.4572268c-5.2493755,1.6621353-10.2247586,3.2306493-15.1301404,2.9748371-8.5514575-.4990271-11.2746337,6.8821649-12.3147745,9.7368976-3.1006674-2.6352811-6.5396025-3.7145023-9.3383628-4.5951721-2.3359362-.7339392-3.8094119-1.2273833-4.6076261-2.073124-2.8281064-3.0196436-7.5141656-2.7890261-10.2596876-.8289919-.3522824.2543807-1.8342037.4626665-2.8142207.6010943-2.6070661.3661822-6.0964046.8569065-9.1747403,3.3802429l-4.2023635-4.5447826-4.8396752,5.3514429c-4.7489169-.0196118-8.865962,1.3699625-12.5300748,2.6351379-.6164115.2124372-1.2189374.4194347-1.8075642.6151232.0042946-2.8029118-.9408067-5.2060007-2.0689858-7.0737019.2977557-1.2637439.9702827-3.4641299,2.2549267-6.7689318l2.273107.0446634v-6.0056465c.6570666-3.4599785-1.3267174-6.3453457-3.8905657-7.4888421-1.5154179-.6725271-3.345327-.7870485-5.0382399-.1859542-8.393418.7143274-12.2251615,6.5340197-14.640835,11.6744569-.803953,1.7067986-1.3379092,3.3872574-1.8090217,4.8704529-.4165717,1.3112703-.8093801,2.5498195-1.3015359,3.5033535-1.4887784,2.8951015-2.8630355,4.8425383-4.4538811,6.311705-4.5741286,4.2205439-8.6128696,8.8225872-12.5174774,13.2723171-2.4477522,2.7890261-4.7600828,5.4227325-7.1952376,7.9739835-.0586922.0574039-.5312362.48099-2.2158463,1.0316949-.0153172-.0153172-.0307776-.032066-.0460949-.0475264-.4403349-.4473493-.8806578-.8891157-1.3267306-1.290227l-4.7530683-4.2833875-5.0871846,4.9879805c-3.8499122,3.7744829-7.7950435,7.6398672-11.5430433,11.8211875-3.1998716-1.3463425-6.2852218-.4935873-8.1948664.3731967l-8.112411,3.6682643-.0419325-.0209002-2.9510848-6.2084926-6.4263694,3.8430526c-3.6626813,2.1906517-4.8817618,5.4981735-5.4619559,7.4441787-.11037.0727211-.2221716.1495936-.3341162.232049-3.4417981.9143104-5.9357883,2.8966762-7.880362,4.441427-.8876841.7058814-1.7264104,1.3726824-2.3471165,1.6774525-3.9744658,1.9530197-6.4515641,4.6455615-8.3570473,7.1422716l3.946398-23.2900784-17.4648027,25.3757998c-5.630875,8.1822693-9.1259256,7.4441787-13.1043997,5.6295868l-8.3319966-3.7968146-.788346,5.7889147c-1.954442-.188674-4.195349.1776514-6.587272,1.6579839l-.7283562.4516439-.5927915.6164116c-.9071528.942225-2.0227346,2.4745216-2.3638652,4.5391997-.2460779.1944001-.4655296.4390465-.6962902.6599297-1.876004-1.4469782-4.4371324-1.8984789-6.7758029-.9157419-3.4669928,1.4525611-5.0997819,5.4409128-3.6459325,8.9079057.0153172.0377921.0307776.0740095.0446634.1118015-1.1015529.5605824-2.4156862,1.5265706-3.3438823,3.1062504l-11.2424246,6.8682791c-.008446.0055829-.0196035.0083028-.0280577.0140289l-2.5345022-4.3100137-5.1235451,8.132023c-1.9445737.0880383-5.4213008.3019071-8.4841762,2.8769213-1.5881258-.698867-3.1202792-.8261289-3.9017447-.8904041-1.5796798-.1425792-3.058724.2948927-4.2833797,1.1015529-.2907489.1341332-.5814902.2613951-.8583457.4389033-3.8263038,2.4660757-4.6803472,6.0337043-4.7991632,8.6184528-1.4804756-.2012714-3.0322409-.0460949-4.6567272.4586583-1.9991145-1.6608469-4.2497467-1.9893803-6.0447268-1.8802986l-.5452651.0334975-.5326678.1202475c-.3773481.0853185-.7325076.188674-1.0693438.3103531l-5.9665659-6.6375185-2.9902974,10.5029028c-.4837098.2487978-1.0651923.5647338-1.6705812.977154-1.4454035-2.5596969-3.0866385-6.4292326-4.6774842-10.1772325-2.3695913-5.5847803-4.8202065-11.3598093-7.5867577-15.3762187-2.9386196-4.2652072-5.5220797-8.8238756-8.2549902-13.6510967l-.4026859-.7087445c11.3347575-6.6180498,22.8596275-12.3342435,34.055807-17.8883893,13.3171308-6.6054525,27.0870355-13.434508,40.7046343-21.8320776l6.0895333-3.7548711-4.0540582-5.8952765c-1.7740799-2.5793087-3.5326995-5.1221138-5.2772901-7.6427302-4.82163-6.9702032-9.3761549-13.5546124-13.8399135-20.3166729-.5620139-.8498921-1.1477909-1.5530536-1.6649983-2.1737597-.1704859-.2041344-.3928085-.469681-.5690283-.6948587.3006187-5.2074322.4628097-10.4454989.6179862-15.5215178l.1202475-3.8360382c.1159529-3.5467284.6010943-15.75371,1.29309-32.8647851l33.8727159-31.2082327,242.4535827-1.9011988Z"/>
      <path class="st0" d="M287.391097,508.4999105c-1.6482495.0336407-3.0462697.6374549-4.1980689,1.8173118-1.1519423,1.1771371-1.7112363,2.5919061-1.6790201,4.2387241.032202,1.646818.6360162,3.0475582,1.8173047,4.1995005,1.1785686,1.1490793,2.6086548,1.7082302,4.2904018,1.6747326,1.6831786-.0307776,3.0812061-.6459008,4.1980689-1.8397866,1.1141503-1.1966057,1.6566955-2.6169576,1.6259252-4.2637757-.0336481-1.646818-.6374623-3.0391122-1.8145993-4.1714428-1.1798569-1.1351936-2.5946259-1.6860416-4.2400124-1.655264Z"/>
      <path class="st0" d="M613.7407809,181.3660329l137.9722564-2.2144148,129.6907831-1.0792213-.2223147-6.9647634c-.7744511-24.3482564-2.1625938-66.7151701-2.7442195-76.896554-.1258304-2.2045374-.1481621-4.4972562-.1733568-6.9241083-.0111658-1.2007571-.0237632-2.4310035-.0488148-3.7059132l-.2363214-6.804004-31.0851436.6095403c-13.795107.275424-27.5889256.550848-41.3825808.785617-55.6545481.9479511-111.307539,1.8732842-166.9619425,2.7764287-23.7431532.3802111-47.5979648-.7982143-70.8826029-3.5228221-.9310591-.1090817-1.9962372-.1202475-3.1397479-.0979158-.2475094.0055829-.4963072.0111658-.7465365.0111658-.4990271,0-.666801-.0293461-.6779668-.0293461l-6.1804347-2.1625939-2.4003689,6.0922533c-.4374718,1.1114304-.8792382,2.2185662-1.3197022,3.3244137-1.1098697,2.7818685-2.2520777,5.6477671-3.3242845,8.5527461-1.1463456.3564479-2.2493438.7465365-3.3327164,1.130899-.1873857.0657067-.3704768.1314133-.5537111.1958316l-1.0414292-16.150813-6.2182268-.1593279c-1.6718696-.043375-3.3186876-.0936213-4.9473253-.1425792-3.5703484-.1090817-6.9422751-.2111489-10.417584-.2390635-8.3249914-.0601237-16.6498397-.1020672-24.9746753-.1425792-9.9801248-.0489579-19.9616685-.0979158-29.9430573-.1818028-14.7276095-.1215359-29.4552071-.2878782-44.1828048-.4542206l-22.2695489-.2475094c-12.7941898-.1398593-25.5883796-.2795754-38.3825694-.4389033-7.9390542-.0993473-15.8781085-.2111489-23.8185942-.3243819-5.677113-.0810239-11.3542261-.1607594-17.0314823-.237632l-.5325246-.002863c-.7353707,0-1.4763242.0196118-2.2563583.0419435l-7.7838777.153745-.1901056,6.4837735c-.0741526,2.5164651-.1593279,4.9879805-.243207,7.4317245-.1902566,5.4492156-.3677648,10.5979555-.4109966,15.8723828-.0448065,5.4983166-.9996288,27.4128496-2.8351209,65.1340588l-.3439937,7.0569532,305.4808751,3.4698559h.0923329ZM324.9599917,105.8171098c.040512-5.0956307.21674-10.1563323.4026859-15.513215.0097343-.3090647.0209002-.6194177.032066-.9283393,4.7348881.0642751,9.4712077.1314133,14.2075273.1985515,7.9475002.1132331,15.8935688.2250346,23.8409259.3256703,12.8026357.1580396,25.60384.2977557,38.4050442.437615l22.2639659.2473663c14.7414834.1664855,29.4831213.3341162,44.2233049.4557953,9.996861.0838869,19.993722.1328448,29.9905829.1818028,8.3122509.040512,16.6259333.0810239,24.9369091.1425792,2.9343119.0223317,5.8518882.1033556,8.9008778.1956885l1.1895912,18.4167625,6.6711726-.3033386c4.2916903-.1956885,7.8900827-1.4705982,11.0649027-2.594626,1.8047144-.6403179,3.5102246-1.2441321,5.0522556-1.530722,1.2734782-.2363436,5.4283153-1.4302294,6.26561-7.0598162.9143104-2.5121705,1.8886156-4.9892689,2.9119934-7.5601317.0768725-.0014315.153745-.0014315.2292003-.0014315.2097031.0097343.3607425-.0014315.5368192.0196118,23.8787037,2.7944658,48.3543645,4.0079635,72.6845831,3.612292,55.6571234-.9031446,111.3158214-1.8284777,166.973088-2.7762856,13.8077043-.2349121,27.6139772-.5103361,41.4216815-.7857601l17.5277895-.3467136c.0264831,1.4484097.0698581,2.8812158.153745,4.3379283.4012544,7.0150097,1.2860755,31.6136385,2.5065876,69.58794l-115.8047748.9632683-137.8395547,2.2129833-291.2578875-3.307665c1.6425235-34.0235987,2.4646441-53.2288412,2.5093074-58.6278105Z"/>
    </g>
  </g>
  <g>
    <g>
      <path class="st0" d="M1031.4566134,286.4449514V79.2545777c0-2.4604308.5464213-2.1867085,2.1867085-.5469329l117.2621149,115.6223394v-113.1624202h42.0938826v207.464096c0,2.7331298-.2732107,3.2795511-2.7331298,1.0928426l-116.7156936-112.6149757v109.3354245h-42.0938826Z"/>
      <path class="st0" d="M1341.6970317,286.4449514v-75.7146536h-73.8016674v75.7146536h-42.0938826V81.4412862h42.0938826v87.1946174h73.8016674v-87.1946174h42.0938826v205.0036652h-42.0938826Z"/>
      <path class="st0" d="M1585.2418178,81.4412862l-89.1086268,206.6429291c-1.9134978,4.1002063-1.9134978,4.373417-3.8259724,0l-89.3813258-206.6429291h45.9208783l45.647156,104.6882853,44.5538018-104.6882853h46.194089Z"/>
      <path class="st0" d="M1684.4623086,81.4412862h67.5147526c44.2805911,0,79.267927,34.1671923,79.267927,79.5411376,0,44.2811028-34.9873359,78.9942047-79.267927,78.9942047h-25.4198467v46.4683229h-42.0949059V81.4412862ZM1751.9770612,197.8832575c20.227821,0,37.1740443-16.127103,37.1740443-36.9008337,0-21.0469413-16.6730127-37.447255-37.1740443-37.447255h-25.4198467v74.3480887h25.4198467Z"/>
      <path class="st0" d="M1953.1552656,286.4449514v-46.4683229h-58.4947079v46.4683229h-42.0938826v-130.9292988c0-51.9340708,31.9809954-76.8080078,71.6149589-76.8080078,38.8143315,0,71.0675143,24.873937,71.0675143,76.8080078v130.9292988h-42.0938826ZM1894.6605576,197.8832575h58.4947079v-40.1808964c-.2732107-24.873937-10.3871211-37.7204657-28.9736317-37.7204657-20.2267977,0-29.5210763,12.8465287-29.5210763,37.7204657v40.1808964Z"/>
      <path class="st0" d="M2067.4095052,81.4412862v205.0036652h-42.0949059V81.4412862h42.0949059Z"/>
      <path class="st0" d="M2098.5667756,286.4449514V79.2545777c0-2.4604308.5474446-2.1867085,2.1867085-.5469329l117.2626265,115.6223394v-113.1624202h42.0938826v207.464096c0,2.7331298-.2732107,3.2795511-2.7331298,1.0928426l-116.7162052-112.6149757v109.3354245h-42.0938826Z"/>
      <path class="st0" d="M2332.5466306,286.4449514V123.5351688h-50.2942953v-42.0938826h142.4092626v42.0938826h-50.0210846v162.9097826h-42.0938826Z"/>
      <path class="st0" d="M2581.829352,123.5351688h-93.4810205v45.1007347h70.2478824v42.0943943h-70.2478824v33.6197477h94.5748864v42.0949059h-136.6697923V81.4412862h135.5759264v42.0938826Z"/>
      <path class="st0" d="M2710.2966852,286.4449514l-31.4335508-46.4683229h-26.7869232v46.4683229h-42.0949059V81.4412862h67.5147526c44.2805911,0,79.267927,34.1671923,79.267927,79.5411376,0,28.1539997-14.2130936,52.4810038-35.8069678,66.4213983l39.6339635,59.0411293h-50.2942953ZM2677.4960578,197.8832575c20.227821,0,37.1740443-16.127103,37.1740443-36.9008337,0-21.0469413-16.6730127-37.447255-37.1740443-37.447255h-25.4198467v74.3480887h25.4198467Z"/>
      <path class="st0" d="M2912.0223342,227.9502435c0,36.627623-30.3407082,61.2278377-70.521093,61.2278377-42.0949059,0-62.5949143-27.8807891-68.3354078-37.447255l34.1677039-24.6002147c2.4599191,3.2795511,12.8470403,19.4061425,32.8006274,19.9535871,16.674036.5464213,29.520053-5.4672829,29.520053-17.7668786,0-16.127103-16.3998021-21.8670849-46.194089-34.9873359-29.520053-12.8470403-47.0137209-29.5205646-47.0137209-60.4076942,0-32.2542061,26.7869232-55.4878559,64.2341782-55.4878559,28.4272104,0,52.4810038,11.4799638,65.3280441,29.5205646l-34.1666806,24.8734254c-9.5674892-11.7531744-23.5073721-12.3001074-30.3407082-12.3001074-15.0337488,0-22.9609508,6.0137042-22.9609508,13.1202509,0,9.8401882,3.2805744,14.4868158,32.5274167,26.7874348,35.8069678,15.0337488,60.9546271,31.7072731,60.9546271,67.5142409Z"/>
    </g>
    <g>
      <path class="st0" d="M1044.7912316,378.6484517l-12.2109375-36.9082031h10.7421875l6.8857422,23.5957031h.1835938l6.8862305-23.5957031h9.8237305l-12.2109375,36.9082031v27.3603516h-10.0996094v-27.3603516Z"/>
      <path class="st0" d="M1096.8449425,390.7675924v-33.7861328c0-10.2832031,5.4169922-16.1591797,15.3325195-16.1591797,9.9160156,0,15.3325195,5.8759766,15.3325195,16.1591797v33.7861328c0,10.2832031-5.4165039,16.1591797-15.3325195,16.1591797-9.9155273,0-15.3325195-5.8759766-15.3325195-16.1591797ZM1117.4108605,391.4111471v-35.0722656c0-4.5908203-2.0200195-6.3359375-5.2333984-6.3359375s-5.2333984,1.7451172-5.2333984,6.3359375v35.0722656c0,4.5898438,2.0200195,6.3349609,5.2333984,6.3349609s5.2333984-1.7451172,5.2333984-6.3349609Z"/>
      <path class="st0" d="M1161.4753136,390.7675924v-49.0273438h10.0996094v49.7626953c0,4.5898438,1.9277344,6.2431641,5.1411133,6.2431641s5.1416016-1.6533203,5.1416016-6.2431641v-49.7626953h9.7319336v49.0273438c0,10.2832031-5.1411133,16.1591797-15.0571289,16.1591797-9.9155273,0-15.0571289-5.8759766-15.0571289-16.1591797Z"/>
      <path class="st0" d="M1226.2887902,341.7402486h14.965332c10.4667969,0,14.965332,4.8662109,14.965332,14.7822266v3.9472656c0,6.6103516-2.1113281,10.8339844-6.6103516,12.6699219v.1835938c5.0498047,1.5615234,6.7021484,6.3359375,6.7021484,13.5888672v11.2929688c0,3.1210938.0922852,5.4169922,1.1020508,7.8037109h-10.2832031c-.5507812-1.6523438-.9179688-2.6621094-.9179688-7.8955078v-11.7519531c0-5.9677734-1.7446289-7.8964844-6.3349609-7.8964844h-3.4887695v27.5439453h-10.0996094v-64.2685547ZM1240.0607629,369.2841939c3.7641602,0,6.0595703-1.6533203,6.0595703-6.7939453v-4.9580078c0-4.5908203-1.5610352-6.6103516-5.1416016-6.6103516h-4.590332v18.3623047h3.6723633Z"/>
      <path class="st0" d="M1333.0573449,341.7402486h12.6704102l9.8237305,38.4697266h.1835938v-38.4697266h8.9975586v64.2685547h-10.3745117l-12.1196289-46.9160156h-.1835938v46.9160156h-8.9975586v-64.2685547Z"/>
      <path class="st0" d="M1399.7985558,341.7402486h27.5439453v9.1816406h-17.4443359v16.9853516h13.8632812v9.1806641h-13.8632812v19.7392578h17.4443359v9.1816406h-27.5439453v-64.2685547Z"/>
      <path class="st0" d="M1458.2775597,341.7402486h9.7324219l4.4985352,49.3945312h.1835938l4.7744141-49.3945312h11.0175781l4.7739258,49.3945312h.1835938l4.4990234-49.3945312h8.722168l-6.5185547,64.2685547h-12.5786133l-4.590332-43.3349609h-.1835938l-4.5908203,43.3349609h-13.4042969l-6.519043-64.2685547Z"/>
      <path class="st0" d="M1581.5700402,341.7402486h10.0996094v26.1669922h10.8334961v-26.1669922h10.0996094v64.2685547h-10.0996094v-28.9208984h-10.8334961v28.9208984h-10.0996094v-64.2685547Z"/>
      <path class="st0" d="M1646.9352746,390.7675924v-33.7861328c0-10.2832031,5.4169922-16.1591797,15.3325195-16.1591797,9.9160156,0,15.3325195,5.8759766,15.3325195,16.1591797v33.7861328c0,10.2832031-5.4165039,16.1591797-15.3325195,16.1591797-9.9155273,0-15.3325195-5.8759766-15.3325195-16.1591797ZM1667.5011925,391.4111471v-35.0722656c0-4.5908203-2.0200195-6.3359375-5.2333984-6.3359375s-5.2333984,1.7451172-5.2333984,6.3359375v35.0722656c0,4.5898438,2.0200195,6.3349609,5.2333984,6.3349609s5.2333984-1.7451172,5.2333984-6.3349609Z"/>
      <path class="st0" d="M1711.9328332,341.7402486h14.4145508l6.4267578,45.9980469h.1835938l6.4272461-45.9980469h14.4145508v64.2685547h-9.5488281v-48.6601562h-.1835938l-7.3447266,48.6601562h-8.4467773l-7.3452148-48.6601562h-.1835938v48.6601562h-8.8139648v-64.2685547Z"/>
      <path class="st0" d="M1788.8654504,341.7402486h27.5439453v9.1816406h-17.4443359v16.9853516h13.8632812v9.1806641h-13.8632812v19.7392578h17.4443359v9.1816406h-27.5439453v-64.2685547Z"/>
      <path class="st0" d="M1889.2980675,341.7402486h10.1914062l6.6103516,49.8544922h.1835938l6.6103516-49.8544922h9.2734375l-9.7324219,64.2685547h-13.4042969l-9.7324219-64.2685547Z"/>
      <path class="st0" d="M1954.5705285,341.7402486h10.0996094v64.2685547h-10.0996094v-64.2685547Z"/>
      <path class="st0" d="M1997.99338,390.7675924v-3.671875h9.5483398v4.4072266c0,4.5898438,2.0200195,6.2431641,5.2333984,6.2431641s5.2333984-1.6533203,5.2333984-6.4277344c0-5.3242188-2.0200195-8.7216797-8.6303711-14.5058594-8.4467773-7.4365234-11.2011719-12.6699219-11.2011719-20.0146484,0-10.0996094,5.2333984-15.9755859,15.0571289-15.9755859s14.6899414,5.8759766,14.6899414,16.1591797v2.6621094h-9.5483398v-3.3046875c0-4.5908203-1.8364258-6.3359375-5.0498047-6.3359375s-5.0498047,1.7451172-5.0498047,6.1523438c0,4.6816406,2.1118164,8.0791016,8.722168,13.8632812,8.4467773,7.4365234,11.109375,12.578125,11.109375,20.5654297,0,10.4667969-5.3251953,16.3427734-15.2407227,16.3427734-9.9160156,0-14.8735352-5.8759766-14.8735352-16.1591797Z"/>
      <path class="st0" d="M2061.4299035,341.7402486h10.0996094v64.2685547h-10.0996094v-64.2685547Z"/>
      <path class="st0" d="M2105.8625207,390.7675924v-33.7861328c0-10.2832031,5.4169922-16.1591797,15.3330078-16.1591797s15.3320312,5.8759766,15.3320312,16.1591797v33.7861328c0,10.2832031-5.4160156,16.1591797-15.3320312,16.1591797s-15.3330078-5.8759766-15.3330078-16.1591797ZM2126.4279504,391.4111471v-35.0722656c0-4.5908203-2.0195312-6.3359375-5.2324219-6.3359375-3.2138672,0-5.234375,1.7451172-5.234375,6.3359375v35.0722656c0,4.5898438,2.0205078,6.3349609,5.234375,6.3349609,3.2128906,0,5.2324219-1.7451172,5.2324219-6.3349609Z"/>
      <path class="st0" d="M2170.859591,341.7402486h12.6708984l9.8232422,38.4697266h.1835938v-38.4697266h8.9980469v64.2685547h-10.375l-12.1191406-46.9160156h-.1835938v46.9160156h-8.9980469v-64.2685547Z"/>
      <path class="st0" d="M2278.0861535,390.7675924v-3.671875h9.5488281v4.4072266c0,4.5898438,2.0195312,6.2431641,5.2324219,6.2431641,3.2138672,0,5.234375-1.6533203,5.234375-6.4277344,0-5.3242188-2.0205078-8.7216797-8.6308594-14.5058594-8.4472656-7.4365234-11.2011719-12.6699219-11.2011719-20.0146484,0-10.0996094,5.2333984-15.9755859,15.0566406-15.9755859,9.8242188,0,14.6904297,5.8759766,14.6904297,16.1591797v2.6621094h-9.5478516v-3.3046875c0-4.5908203-1.8369141-6.3359375-5.0507812-6.3359375-3.2128906,0-5.0488281,1.7451172-5.0488281,6.1523438,0,4.6816406,2.1113281,8.0791016,8.7216797,13.8632812,8.4462891,7.4365234,11.109375,12.578125,11.109375,20.5654297,0,10.4667969-5.3251953,16.3427734-15.2412109,16.3427734s-14.8730469-5.8759766-14.8730469-16.1591797Z"/>
      <path class="st0" d="M2349.4191613,350.9218892h-10.5585938v-9.1816406h31.2158203v9.1816406h-10.5585938v55.0869141h-10.0986328v-55.0869141Z"/>
      <path class="st0" d="M2406.0636925,341.7402486h13.6806641l10.4658203,64.2685547h-10.0986328l-1.8369141-12.7617188v.1835938h-11.4765625l-1.8359375,12.578125h-9.3652344l10.4667969-64.2685547ZM2417.0812707,384.7080221l-4.4990234-31.7666016h-.1835938l-4.40625,31.7666016h9.0888672Z"/>
      <path class="st0" d="M2462.6134972,341.7402486h14.9648438c10.4667969,0,14.9658203,4.8662109,14.9658203,14.7822266v3.9472656c0,6.6103516-2.1113281,10.8339844-6.6103516,12.6699219v.1835938c5.0498047,1.5615234,6.703125,6.3359375,6.703125,13.5888672v11.2929688c0,3.1210938.0917969,5.4169922,1.1015625,7.8037109h-10.2832031c-.5507812-1.6523438-.9179688-2.6621094-.9179688-7.8955078v-11.7519531c0-5.9677734-1.7451172-7.8964844-6.3359375-7.8964844h-3.4882812v27.5439453h-10.0996094v-64.2685547ZM2476.3849816,369.2841939c3.7646484,0,6.0605469-1.6533203,6.0605469-6.7939453v-4.9580078c0-4.5908203-1.5605469-6.6103516-5.1425781-6.6103516h-4.5898438v18.3623047h3.671875Z"/>
      <path class="st0" d="M2534.8654504,350.9218892h-10.5585938v-9.1816406h31.2158203v9.1816406h-10.5585938v55.0869141h-10.0986328v-55.0869141Z"/>
      <path class="st0" d="M2586.1838097,390.7675924v-3.671875h9.5488281v4.4072266c0,4.5898438,2.0195312,6.2431641,5.2324219,6.2431641,3.2138672,0,5.234375-1.6533203,5.234375-6.4277344,0-5.3242188-2.0205078-8.7216797-8.6308594-14.5058594-8.4472656-7.4365234-11.2011719-12.6699219-11.2011719-20.0146484,0-10.0996094,5.2333984-15.9755859,15.0566406-15.9755859,9.8242188,0,14.6904297,5.8759766,14.6904297,16.1591797v2.6621094h-9.5478516v-3.3046875c0-4.5908203-1.8369141-6.3359375-5.0507812-6.3359375-3.2128906,0-5.0488281,1.7451172-5.0488281,6.1523438,0,4.6816406,2.1113281,8.0791016,8.7216797,13.8632812,8.4462891,7.4365234,11.109375,12.578125,11.109375,20.5654297,0,10.4667969-5.3251953,16.3427734-15.2412109,16.3427734s-14.8730469-5.8759766-14.8730469-16.1591797Z"/>
      <path class="st0" d="M2691.8498254,341.7402486h10.0996094v26.1669922h10.8339844v-26.1669922h10.0996094v64.2685547h-10.0996094v-28.9208984h-10.8339844v28.9208984h-10.0996094v-64.2685547Z"/>
      <path class="st0" d="M2757.9494347,341.7402486h27.5439453v9.1816406h-17.4443359v16.9853516h13.8632812v9.1806641h-13.8632812v19.7392578h17.4443359v9.1816406h-27.5439453v-64.2685547Z"/>
      <path class="st0" d="M2818.8156457,341.7402486h14.9658203c10.4667969,0,14.9648438,4.8662109,14.9648438,14.7822266v3.9472656c0,6.6103516-2.1113281,10.8339844-6.6103516,12.6699219v.1835938c5.0498047,1.5615234,6.7021484,6.3359375,6.7021484,13.5888672v11.2929688c0,3.1210938.0917969,5.4169922,1.1015625,7.8037109h-10.2832031c-.5507812-1.6523438-.9179688-2.6621094-.9179688-7.8955078v-11.7519531c0-5.9677734-1.7441406-7.8964844-6.3339844-7.8964844h-3.4892578v27.5439453h-10.0996094v-64.2685547ZM2832.5881066,369.2841939c3.7636719,0,6.0585938-1.6533203,6.0585938-6.7939453v-4.9580078c0-4.5908203-1.5605469-6.6103516-5.140625-6.6103516h-4.5908203v18.3623047h3.6728516Z"/>
      <path class="st0" d="M2883.3556847,341.7402486h27.5429688v9.1816406h-17.4453125v16.9853516h13.8652344v9.1806641h-13.8652344v19.7392578h17.4453125v9.1816406h-27.5429688v-64.2685547Z"/>
    </g>
  </g>
</svg>